HIERARCHY
ROOT Hips
{
	OFFSET -19.892155 55.119549 0.522530
	CHANNELS 6 Xposition Yposition Zposition Xrotation Yrotation Zrotation
	JOINT Chest
	{
		OFFSET -4.805847 12.768078 0.185010
		CHANNELS 3 Xrotation Yrotation Zrotation
		JOINT Chest2
		{
			OFFSET -3.558033 19.120811 8.988977
			CHANNELS 3 Xrotation Yrotation Zrotation
			JOINT Chest3
			{
				OFFSET -2.844774 14.401093 2.708437
				CHANNELS 3 Xrotation Yrotation Zrotation
				JOINT Neck
				{
					OFFSET -3.705606 16.438744 3.827818
					CHANNELS 3 Xrotation Yrotation Zrotation
					JOINT Head
					{
						OFFSET -2.912117 8.424332 5.511612
						CHANNELS 3 Xrotation Yrotation Zrotation
						End Site
						{
							OFFSET -2.937904 8.455070 5.450510
						}
					}
				}
				JOINT LeftCollar
				{
					OFFSET 2.137953 13.708771 3.050107
					CHANNELS 3 Xrotation Yrotation Zrotation
					JOINT LeftUpArm
					{
						OFFSET 12.331263 6.580055 -10.636837
						CHANNELS 3 Xrotation Yrotation Zrotation
						JOINT LeftLowArm
						{
							OFFSET 24.958023 0.483459 22.728649
							CHANNELS 3 Xrotation Yrotation Zrotation
							JOINT LeftHand
							{
								OFFSET -10.071971 26.506279 9.844807
								CHANNELS 3 Xrotation Yrotation Zrotation
								End Site
								{
									OFFSET -2.201297 5.793091 2.151653
								}
							}
						}
					}
				}
				JOINT RightCollar
				{
					OFFSET -4.514986 11.165092 7.534210
					CHANNELS 3 Xrotation Yrotation Zrotation
					JOINT RightUpArm
					{
						OFFSET -13.588017 0.746918 11.104239
						CHANNELS 3 Xrotation Yrotation Zrotation
						JOINT RightLowArm
						{
							OFFSET 28.001656 4.829536 18.229576
							CHANNELS 3 Xrotation Yrotation Zrotation
							JOINT RightHand
							{
								OFFSET 9.941988 27.518982 -6.694572
								CHANNELS 3 Xrotation Yrotation Zrotation
								End Site
								{
									OFFSET 2.172926 6.014542 -1.463169
								}
							}
						}
					}
				}
			}
		}
	}
	JOINT LeftUpLeg
	{
		OFFSET 8.774031 3.352882 -3.491948
		CHANNELS 3 Xrotation Yrotation Zrotation
		JOINT LeftLowLeg
		{
			OFFSET 39.629589 8.265697 24.600042
			CHANNELS 3 Xrotation Yrotation Zrotation
			JOINT LeftFoot
			{
				OFFSET 0.308422 -40.877998 -18.151073
				CHANNELS 3 Xrotation Yrotation Zrotation
				JOINT LeftToe
				{
					OFFSET 20.012949 -9.968132 7.725137
					CHANNELS 3 Xrotation Yrotation Zrotation
					End Site
					{
						OFFSET 18.582241 4.675385 13.870831
					}
				}
			}
		}
	}
	JOINT RightUpLeg
	{
		OFFSET -8.773964 -3.353069 3.491946
		CHANNELS 3 Xrotation Yrotation Zrotation
		JOINT RightLowLeg
		{
			OFFSET -6.802193 -38.199287 27.176397
			CHANNELS 3 Xrotation Yrotation Zrotation
			JOINT RightFoot
			{
				OFFSET -10.591347 12.562780 -41.600269
				CHANNELS 3 Xrotation Yrotation Zrotation
				JOINT RightToe
				{
					OFFSET -4.231178 -21.343887 -9.278651
					CHANNELS 3 Xrotation Yrotation Zrotation
					End Site
					{
						OFFSET -1.868702 -22.686485 6.433306
					}
				}
			}
		}
	}
}
MOTION
Frames: 10
Frame Time: 0.033333
-0.161314 106.130417 -1.111758 0.875810 -20.393463 -20.914972 -26.077671 -14.577229 7.870091 10.194921 0.649878 0.968417 -1.133867 -7.697869 -3.027603 -15.932405 17.818401 1.225075 -0.000002 0.000000 -0.000001 -3.529004 24.746306 -2.379732 -22.699582 45.958666 31.286959 70.160905 8.997630 -68.311761 -0.000000 -0.000005 -0.000001 25.441785 -31.431233 17.045605 5.321175 -77.828250 0.376121 10.596376 -44.590029 -55.888829 0.000001 0.000000 0.000001 44.259622 -6.992649 -63.981510 -31.780023 -50.812318 76.373024 3.740067 -32.002715 -26.134375 0.000000 -0.000004 -0.000001 30.955223 18.763587 14.366671 -129.822198 -10.915704 15.156702 22.681118 3.274035 -0.112934 0.000000 -0.000000 -0.000000 
-20.079475 50.622566 -1.108396 -10.076458 -4.588238 14.366381 5.247087 0.167871 3.654676 2.153183 3.207156 -3.503960 0.463299 -5.438950 -7.051024 3.430746 4.410064 -2.568162 0.000000 -0.000002 -0.000001 -1.319033 0.665758 -12.227578 7.574529 8.656850 -21.639853 0.373233 -12.993935 17.588618 0.000002 -0.000005 -0.000001 7.541408 -3.011526 4.002662 27.933261 2.939170 -11.039549 -17.495552 26.600663 -17.434031 -0.000001 -0.000002 -0.000000 4.752738 2.304043 -8.311379 1.625097 0.533370 -6.013248 4.158255 -1.691425 -6.278765 0.000002 -0.000004 -0.000001 -6.222345 -4.620439 -13.292406 11.851534 1.208689 -6.763494 0.208752 0.282647 0.956737 0.000004 -0.000001 -0.000002 
-20.084040 50.627098 -1.090115 -10.620235 -4.364690 14.449964 5.279341 0.095679 4.015323 2.301901 3.224445 -3.468071 0.714134 -5.891570 -7.488827 3.512459 4.574600 -2.701983 0.000005 -0.000001 0.000001 -1.447064 1.166741 -12.486726 8.038804 8.724533 -21.934580 0.876698 -13.179522 17.994289 0.000002 0.000000 0.000001 7.936243 -3.716707 4.239425 28.063738 3.635799 -11.688767 -17.361554 26.404017 -18.054705 -0.000001 -0.000003 -0.000004 4.719861 1.992061 -8.478584 2.175108 0.991140 -5.711466 3.984918 -2.212746 -6.278105 0.000001 -0.000002 -0.000002 -5.860784 -4.660510 -13.774064 11.386882 0.678221 -5.700002 -0.255068 0.433034 0.974066 0.000001 0.000002 0.000001 
-20.094215 50.633099 -1.076993 -10.394435 -4.361667 14.640297 5.522244 0.135053 4.058028 2.930707 3.137451 -3.455359 0.018797 -5.707670 -7.696578 3.320575 4.615367 -2.690528 -0.000000 0.000000 -0.000000 -0.923034 0.626057 -12.946901 8.320673 8.645300 -21.652453 -0.617302 -12.398305 17.762619 0.000003 -0.000005 0.000000 8.254845 -3.579878 4.153685 27.418358 2.930948 -11.691394 -18.073504 26.798491 -17.937651 -0.000000 -0.000002 -0.000000 4.619829 1.798865 -8.463829 2.206305 0.931276 -6.014253 3.710352 -2.187229 -5.807374 0.000002 -0.000002 -0.000002 -6.496967 -4.567284 -13.767887 11.615693 0.257133 -5.121000 0.930655 0.616347 -0.895499 0.000002 0.000000 -0.000000 
-20.100468 50.645657 -1.060221 -10.460048 -4.226098 14.855795 5.503107 0.109620 4.169046 2.850576 3.233475 -3.532837 0.116007 -5.955336 -7.755377 3.653822 4.665729 -2.833818 -0.000000 0.000000 -0.000001 -1.083962 0.728433 -13.234304 8.481543 8.883163 -22.234035 0.245899 -12.826708 18.161471 0.000004 -0.000005 0.000000 8.616117 -3.484324 4.426304 28.075197 2.338803 -11.730295 -17.941717 27.361232 -18.949721 0.000001 -0.000001 0.000001 4.656534 1.718271 -8.659328 2.291592 0.972205 -5.959270 4.000852 -1.572400 -5.713015 0.000002 -0.000003 -0.000002 -6.332189 -4.709526 -14.229262 11.384284 -0.153756 -4.343808 0.622139 0.741348 -0.990809 0.000002 0.000000 0.000000 
-20.111696 50.652752 -1.049885 -10.833938 -4.419847 15.131850 5.954884 0.206017 4.136771 2.731102 3.281074 -3.522015 0.183463 -6.047680 -7.937819 3.904521 4.769403 -2.907092 0.000002 0.000000 -0.000003 -0.928000 0.716554 -13.523292 8.789442 8.763557 -22.282794 -1.539735 -12.451793 18.221831 0.000001 -0.000001 -0.000003 8.959655 -3.419106 4.470205 28.650379 1.877703 -12.029907 -18.608236 28.278105 -19.227389 0.000001 -0.000001 0.000001 4.956576 1.860406 -9.090668 2.202914 0.934139 -5.944724 3.967477 -1.379572 -5.436529 0.000000 0.000006 -0.000002 -6.107160 -4.743920 -14.250484 11.339386 1.219867 -6.667222 0.889108 0.196682 0.841466 0.000002 0.000000 -0.000001 
-20.122101 50.664864 -1.036297 -11.177263 -4.834200 15.101692 6.239957 0.269301 4.203009 3.250273 3.224444 -3.554784 -0.521282 -5.863618 -7.860933 4.384844 4.982618 -3.200806 -0.000000 -0.000002 -0.000003 -1.051171 0.783368 -14.028922 9.041077 9.285220 -22.771661 -0.777590 -13.041578 18.933286 0.000004 -0.000003 -0.000005 9.195306 -4.025983 4.716635 29.805907 2.635678 -12.675590 -17.806529 27.235094 -20.026372 -0.000000 -0.000000 0.000003 5.256416 2.237113 -9.228071 2.450432 1.241637 -5.708653 3.945471 -1.163377 -5.378755 -0.000000 -0.000001 -0.000002 -5.979826 -4.629444 -13.859433 11.268093 2.218484 -8.320053 1.231004 -0.262141 2.252169 -0.000001 -0.000000 -0.000000 
-20.133530 50.673458 -1.027877 -10.954079 -4.453449 15.283665 5.946896 0.148978 4.385101 2.990725 3.283790 -3.582465 0.071898 -6.239721 -7.986415 3.803661 5.426371 -3.318454 -0.000000 0.000001 -0.000003 -1.488490 1.223659 -14.087640 9.101451 9.204514 -23.249986 0.177187 -13.644635 19.354210 0.000002 -0.000002 0.000001 8.704936 -3.756021 4.272422 29.147709 2.716217 -12.410558 -17.662956 26.936436 -19.793851 -0.000001 -0.000000 0.000001 5.230691 2.047168 -9.367187 2.311031 1.087736 -5.749021 3.834642 -0.822006 -4.991502 -0.000000 -0.000006 -0.000003 -6.166977 -4.735835 -14.326306 11.319056 1.748744 -7.511978 0.833140 -0.071989 1.695097 0.000000 0.000001 0.000001 
-20.152546 50.677914 -1.037095 -10.879936 -4.452383 15.358556 5.724567 0.048094 4.672113 2.999461 3.357343 -3.651676 0.211586 -6.463079 -8.220704 4.217797 5.528029 -3.505675 0.000004 -0.000001 0.000003 -1.589151 1.414055 -14.244677 9.304714 9.253246 -23.620705 0.380669 -14.043783 19.845897 0.000002 -0.000003 -0.000001 8.748310 -3.712641 4.211339 29.518896 3.321298 -12.796371 -17.550231 26.789173 -20.082122 0.000001 -0.000002 0.000002 5.410916 2.247938 -9.450816 2.129631 0.936175 -5.800083 3.717528 -0.721274 -4.722371 0.000001 0.000002 -0.000001 -5.931825 -4.762973 -14.443133 10.937078 1.794826 -7.415280 1.180817 -0.177059 1.786786 0.000002 -0.000000 -0.000000 
-20.166792 50.685276 -1.039954 -10.552145 -4.604143 15.483129 5.583254 0.007344 4.707675 3.101628 3.388230 -3.750110 0.120111 -6.173274 -8.158164 4.378226 5.449343 -3.500324 0.000002 0.000001 -0.000003 -1.738628 1.159954 -14.484364 9.116364 9.599116 -24.069298 1.698877 -15.080096 20.359566 -0.000000 0.000000 0.000001 8.644949 -4.044357 4.450438 30.670671 2.996280 -12.744147 -17.280828 28.150112 -21.375046 0.000003 -0.000001 0.000001 5.545441 2.538607 -9.339316 1.688186 0.443105 -6.215598 3.666253 -0.064615 -4.268338 0.000003 -0.000003 -0.000002 -6.170234 -4.756387 -14.397118 11.154126 1.852790 -7.496602 1.771784 -0.399351 1.498895 0.000000 0.000002 -0.000001 
